<?xml version="1.0" standalone="no"?>
<!DOCTYPE svg PUBLIC "-//W3C//DTD SVG 20010904//EN"
 "http://www.w3.org/TR/2001/REC-SVG-20010904/DTD/svg10.dtd">
<svg version="1.0" xmlns="http://www.w3.org/2000/svg"
 width="512.000000pt" height="512.000000pt" viewBox="0 0 512.000000 512.000000"
 preserveAspectRatio="xMidYMid meet">

<g transform="translate(0.000000,512.000000) scale(0.100000,-0.100000)"
fill="#000000" stroke="none">
<path d="M666 5104 c-174 -42 -320 -205 -346 -385 -13 -91 -13 -3925 0 -4009
15 -96 68 -195 139 -263 103 -99 216 -137 403 -137 l88 0 28 -63 c53 -116 157
-203 284 -237 29 -8 92 -11 175 -8 119 3 133 5 195 35 93 44 160 109 205 200
l36 73 688 0 687 0 30 -65 c43 -90 109 -157 201 -203 73 -36 78 -37 204 -41
82 -2 146 1 175 9 127 34 231 121 284 238 l28 62 88 0 c126 0 207 16 288 55
132 64 230 198 253 345 14 83 15 3917 1 4009 -26 183 -173 344 -351 386 -94
22 -3691 21 -3783 -1z m3755 -327 c72 -48 69 -9 69 -814 l0 -723 -1565 0
-1565 0 0 304 c0 167 -5 327 -10 357 -23 119 -106 242 -208 308 -92 59 -149
72 -339 78 l-173 6 0 196 c0 220 6 246 69 288 l34 23 1827 0 1827 0 34 -23z
m-3461 -830 c79 -41 80 -48 80 -399 l0 -308 -205 0 -205 0 0 365 0 365 143 0
c130 0 148 -2 187 -23z m80 -1334 c0 -290 -1 -310 -20 -341 -39 -63 -67 -72
-237 -72 l-153 0 0 360 0 360 205 0 205 0 0 -307z m3450 -778 c0 -1068 0
-1086 -20 -1125 -36 -71 -69 -80 -286 -80 -169 0 -192 -2 -230 -21 -59 -28
-84 -72 -91 -161 -5 -62 -11 -77 -34 -100 -26 -27 -32 -28 -121 -28 -91 0 -95
1 -122 29 -22 23 -28 40 -33 100 -7 78 -26 118 -76 155 -28 21 -31 21 -917 21
-886 0 -889 0 -917 -21 -50 -37 -69 -77 -76 -155 -5 -60 -11 -77 -33 -100 -27
-28 -31 -29 -122 -29 -89 0 -95 1 -121 28 -23 23 -29 38 -34 100 -7 89 -32
133 -91 161 -38 19 -61 21 -230 21 -217 0 -250 9 -286 80 -19 38 -20 58 -20
605 l0 565 153 0 c174 0 253 15 334 61 66 38 140 111 177 173 57 97 59 114 63
474 l4 332 1565 0 1564 0 0 -1085z"/>
</g>
</svg>
