<?xml version="1.0" standalone="no"?>
<!DOCTYPE svg PUBLIC "-//W3C//DTD SVG 20010904//EN"
 "http://www.w3.org/TR/2001/REC-SVG-20010904/DTD/svg10.dtd">
<svg version="1.0" xmlns="http://www.w3.org/2000/svg"
 width="512.000000pt" height="512.000000pt" viewBox="0 0 512.000000 512.000000"
 preserveAspectRatio="xMidYMid meet">

<g transform="translate(0.000000,512.000000) scale(0.100000,-0.100000)"
fill="#000000" stroke="none">
<path d="M285 4360 c-106 -15 -212 -97 -258 -198 -22 -47 -22 -48 -25 -960 -2
-650 1 -918 9 -933 27 -52 -108 -49 2549 -49 2657 0 2522 -3 2549 49 8 15 11
283 9 933 l-3 913 -22 47 c-32 71 -103 141 -176 174 l-62 29 -2260 1 c-1243 1
-2283 -2 -2310 -6z m4465 -237 c0 -72 -13 -100 -57 -122 -31 -16 -4235 -16
-4266 0 -44 22 -57 50 -57 122 l0 67 2190 0 2190 0 0 -67z m-4478 -124 c21
-48 89 -104 143 -118 63 -16 4228 -16 4290 0 99 25 165 120 165 237 l0 55 21
-19 c12 -10 30 -37 40 -59 18 -38 19 -86 19 -867 l0 -828 -40 0 -40 0 0 233
c0 223 -1 234 -24 282 -27 58 -57 88 -108 110 -33 13 -268 15 -2178 15 -1910
0 -2145 -2 -2178 -15 -51 -22 -81 -52 -108 -110 -23 -48 -24 -59 -24 -282 l0
-233 -40 0 -40 0 0 825 c0 893 -2 865 53 923 l22 24 6 -69 c3 -37 13 -84 21
-104z m4423 -1084 c31 -15 55 -50 55 -80 0 -13 -282 -15 -2190 -15 -1908 0
-2190 2 -2190 15 0 29 24 64 54 79 28 14 262 16 2134 16 1879 0 2107 -2 2137
-15z m55 -270 l0 -55 -2190 0 -2190 0 0 55 0 55 2190 0 2190 0 0 -55z m0 -205
l0 -40 -2190 0 -2190 0 0 40 0 40 2190 0 2190 0 0 -40z"/>
<path d="M2261 3244 c-27 -34 -26 -40 4 -69 l24 -25 271 0 271 0 24 25 c30 29
31 35 4 69 l-20 26 -279 0 -279 0 -20 -26z"/>
<path d="M4220 3250 c-32 -32 -25 -66 18 -89 26 -14 55 -2 72 29 8 14 7 26 -1
43 -23 42 -57 49 -89 17z"/>
<path d="M4480 3250 c-34 -34 -20 -80 27 -95 17 -4 29 1 48 19 30 30 31 36 4
70 -24 31 -52 33 -79 6z"/>
<path d="M2007 1922 c-44 -48 -87 -200 -87 -307 0 -84 23 -171 77 -294 75
-175 80 -293 17 -443 -28 -68 -26 -99 8 -115 36 -16 65 1 93 56 42 84 58 172
52 296 -4 116 -4 113 -87 305 -28 64 -34 90 -38 175 -4 90 -2 108 23 175 34
96 41 136 25 155 -17 21 -63 19 -83 -3z"/>
<path d="M2510 1908 c-34 -55 -58 -132 -71 -219 -16 -117 4 -226 65 -357 25
-53 50 -117 55 -142 23 -99 9 -222 -35 -321 -25 -56 -26 -60 -10 -84 22 -34
68 -34 94 -1 10 14 32 62 47 108 23 70 28 99 28 188 -1 115 -20 195 -74 303
-71 139 -77 278 -19 424 31 79 32 84 16 108 -25 38 -70 34 -96 -7z"/>
<path d="M3031 1921 c-43 -43 -82 -188 -82 -306 0 -105 12 -158 66 -280 59
-135 68 -179 63 -283 -4 -67 -12 -105 -35 -162 -33 -82 -32 -107 8 -127 48
-24 95 39 129 172 35 138 18 290 -46 416 -86 170 -95 341 -24 479 25 49 25 72
2 93 -24 22 -58 21 -81 -2z"/>
</g>
</svg>
