<?xml version="1.0" standalone="no"?>
<!DOCTYPE svg PUBLIC "-//W3C//DTD SVG 20010904//EN"
 "http://www.w3.org/TR/2001/REC-SVG-20010904/DTD/svg10.dtd">
<svg version="1.0" xmlns="http://www.w3.org/2000/svg"
 width="512.000000pt" height="512.000000pt" viewBox="0 0 512.000000 512.000000"
 preserveAspectRatio="xMidYMid meet">

<g transform="translate(0.000000,512.000000) scale(0.100000,-0.100000)"
fill="#000000" stroke="none">
<path d="M1015 5106 c-101 -32 -203 -114 -245 -196 -52 -103 -50 1 -50 -2161
0 -1315 3 -2025 10 -2060 35 -187 210 -329 405 -329 l32 0 -15 -57 c-51 -201
161 -369 347 -277 103 52 156 168 128 279 l-14 55 947 0 947 0 -14 -55 c-28
-111 25 -227 128 -279 186 -92 398 76 347 277 l-15 57 32 0 c195 0 370 142
405 329 7 35 10 745 10 2060 0 2162 2 2058 -50 2161 -31 61 -116 139 -189 174
l-66 31 -1520 2 c-1208 1 -1528 -1 -1560 -11z m3095 -144 c63 -33 105 -76 132
-136 l23 -51 3 -567 3 -568 -1711 0 -1711 0 3 568 3 567 23 50 c37 80 102 136
180 154 21 5 682 8 1522 8 l1485 -2 45 -23z m158 -2854 c-3 -1400 -3 -1403
-24 -1448 -31 -67 -68 -106 -132 -137 l-57 -28 -1495 0 -1495 0 -45 21 c-67
31 -106 68 -137 132 l-28 57 -3 1403 -2 1402 1710 0 1710 0 -2 -1402z m-2828
-1763 c40 -21 60 -53 60 -98 0 -78 -72 -131 -145 -107 -117 39 -90 216 33 219
13 1 36 -6 52 -14z m2373 -25 c75 -84 -11 -215 -118 -180 -62 21 -95 103 -64
161 34 64 132 75 182 19z"/>
<path d="M1431 4416 c-49 -18 -111 -74 -132 -120 -24 -52 -25 -146 -2 -194 9
-19 32 -51 51 -70 113 -112 306 -74 373 73 37 79 12 203 -52 262 -61 55 -162
77 -238 49z m138 -145 c72 -51 30 -171 -59 -171 -42 0 -67 15 -85 50 -22 42
-19 74 10 109 37 44 84 48 134 12z"/>
<path d="M1441 3330 c-57 -12 -124 -53 -153 -93 l-23 -32 0 -726 0 -726 27
-36 c15 -19 52 -47 82 -62 127 -62 305 -20 365 86 21 36 21 49 21 740 l0 704
-23 37 c-53 88 -175 132 -296 108z m138 -141 c17 -6 36 -19 41 -29 6 -12 10
-269 10 -684 0 -605 -1 -666 -17 -681 -39 -40 -137 -48 -190 -15 l-33 20 0
680 0 680 33 20 c36 22 106 26 156 9z"/>
</g>
</svg>
