<?xml version="1.0" standalone="no"?>
<!DOCTYPE svg PUBLIC "-//W3C//DTD SVG 20010904//EN"
 "http://www.w3.org/TR/2001/REC-SVG-20010904/DTD/svg10.dtd">
<svg version="1.0" xmlns="http://www.w3.org/2000/svg"
 width="512.000000pt" height="512.000000pt" viewBox="0 0 512.000000 512.000000"
 preserveAspectRatio="xMidYMid meet">

<g transform="translate(0.000000,512.000000) scale(0.100000,-0.100000)"
fill="#000000" stroke="none">
<path d="M63 4085 c-67 -29 -63 55 -63 -1300 0 -1306 -2 -1256 46 -1296 11 -9
51 -16 113 -19 l96 -5 3 -184 c2 -163 5 -187 22 -211 57 -80 172 -56 200 41 6
19 10 107 10 196 l0 163 2035 0 2035 0 1 -167 c0 -191 8 -227 58 -260 43 -29
79 -29 122 0 50 33 58 69 58 260 l1 167 123 0 c134 0 154 7 182 60 13 25 15
187 15 1255 0 1359 4 1272 -65 1301 -51 21 -4943 20 -4992 -1z m2377 -500 l0
-285 -1105 0 -1105 0 0 285 0 285 1105 0 1105 0 0 -285z m2450 0 l0 -285
-1105 0 -1105 0 0 285 0 285 1105 0 1105 0 0 -285z m-2450 -800 l0 -285 -1105
0 -1105 0 0 285 0 285 1105 0 1105 0 0 -285z m2450 0 l0 -285 -1105 0 -1105 0
0 285 0 285 1105 0 1105 0 0 -285z m-2450 -800 l0 -285 -1105 0 -1105 0 0 285
0 285 1105 0 1105 0 0 -285z m2450 0 l0 -285 -1105 0 -1105 0 0 285 0 285
1105 0 1105 0 0 -285z"/>
<path d="M1265 3690 c-37 -24 -65 -74 -65 -115 0 -40 32 -90 72 -115 86 -53
198 12 198 115 0 105 -119 172 -205 115z"/>
<path d="M3713 3690 c-88 -53 -82 -190 10 -233 19 -9 48 -17 64 -17 38 0 89
33 113 72 70 116 -70 250 -187 178z"/>
<path d="M1272 2900 c-18 -11 -41 -34 -52 -52 -52 -86 12 -198 113 -198 142 0
191 193 64 253 -46 22 -85 21 -125 -3z"/>
<path d="M3721 2903 c-67 -33 -92 -124 -51 -190 53 -88 190 -82 233 10 22 46
21 85 -3 125 -40 66 -112 88 -179 55z"/>
<path d="M1290 2083 c-23 -9 -60 -45 -76 -75 -43 -82 25 -188 120 -188 107 0
172 116 116 208 -30 48 -106 75 -160 55z"/>
<path d="M3723 2076 c-94 -42 -96 -193 -4 -241 113 -58 244 63 187 173 -37 70
-114 99 -183 68z"/>
</g>
</svg>
