<?xml version="1.0" standalone="no"?>
<!DOCTYPE svg PUBLIC "-//W3C//DTD SVG 20010904//EN"
 "http://www.w3.org/TR/2001/REC-SVG-20010904/DTD/svg10.dtd">
<svg version="1.0" xmlns="http://www.w3.org/2000/svg"
 width="512.000000pt" height="512.000000pt" viewBox="0 0 512.000000 512.000000"
 preserveAspectRatio="xMidYMid meet">

<g transform="translate(0.000000,512.000000) scale(0.100000,-0.100000)"
fill="#000000" stroke="none">
<path d="M637 5100 c-36 -29 -52 -82 -35 -116 7 -15 24 -35 38 -45 14 -10 322
-111 685 -224 363 -114 662 -208 664 -211 2 -2 -8 -30 -22 -61 -14 -32 -31
-79 -37 -105 l-12 -47 -832 -3 -831 -3 -52 -24 c-69 -31 -134 -102 -162 -175
l-21 -57 2 -1757 3 -1757 23 -45 c54 -103 145 -164 262 -177 l60 -6 0 -103 c0
-115 10 -148 51 -170 45 -23 84 -18 118 17 31 31 31 31 31 145 l0 114 1990 0
1990 0 0 -114 c0 -114 0 -114 31 -145 34 -35 73 -40 118 -17 41 22 51 55 51
170 l0 103 60 6 c117 13 208 74 262 177 l23 45 3 1757 2 1757 -21 57 c-28 73
-93 144 -162 175 l-52 24 -831 3 -832 3 -12 47 c-6 26 -23 73 -37 105 -14 31
-24 59 -22 61 2 3 301 97 664 211 363 113 671 214 685 224 14 10 31 30 38 45
27 53 -26 136 -87 136 -15 0 -342 -99 -729 -220 -386 -121 -707 -220 -713
-220 -6 0 -32 15 -58 34 -108 79 -227 116 -371 116 -144 0 -263 -37 -371 -116
-26 -19 -52 -34 -58 -34 -6 0 -327 99 -713 220 -387 121 -714 220 -729 220
-14 0 -38 -9 -52 -20z m2015 -481 c150 -31 291 -161 333 -306 l6 -23 -431 0
-431 0 6 23 c17 58 62 133 109 180 110 112 258 157 408 126z m2191 -550 c55
-25 52 87 55 -1744 2 -929 0 -1709 -3 -1732 -4 -25 -16 -51 -32 -67 l-26 -26
-2277 0 -2277 0 -26 26 c-16 16 -28 42 -32 67 -3 23 -5 803 -3 1732 3 1820 0
1718 53 1744 29 14 4536 15 4568 0z"/>
<path d="M1745 3889 c-295 -10 -585 -26 -904 -50 -283 -20 -319 -28 -341 -70
-14 -26 -55 -288 -80 -519 -79 -714 -64 -1469 45 -2169 14 -91 32 -175 39
-186 8 -12 27 -27 43 -33 29 -12 447 -44 803 -62 803 -40 1617 -40 2420 0 356
18 774 50 803 62 16 6 35 21 43 33 7 11 25 95 39 186 109 700 124 1455 45
2169 -25 231 -66 493 -80 519 -22 42 -58 50 -341 70 -637 47 -1073 61 -1769
59 -305 0 -649 -5 -765 -9z m1470 -199 c419 -14 1150 -53 1211 -65 18 -4 22
-22 47 -207 98 -731 99 -1432 1 -2163 -15 -110 -28 -201 -29 -203 -5 -6 -368
-31 -660 -47 -763 -40 -1687 -40 -2450 0 -292 16 -655 41 -660 47 -1 2 -14 93
-29 203 -98 731 -97 1432 1 2163 25 185 29 203 47 207 26 5 439 31 721 46 553
28 1284 36 1800 19z"/>
<path d="M4192 3485 c-17 -8 -38 -28 -47 -46 -16 -30 -16 -42 0 -188 9 -86 21
-171 27 -188 19 -65 89 -91 149 -56 50 30 53 52 30 242 -11 94 -24 179 -30
189 -24 46 -82 66 -129 47z"/>
<path d="M4255 2861 c-11 -5 -29 -19 -40 -31 -19 -21 -19 -38 -20 -453 -1
-238 -5 -495 -9 -573 l-9 -140 29 -33 c23 -26 38 -33 66 -33 46 0 74 15 92 50
22 43 37 322 36 700 0 450 -3 478 -62 508 -30 16 -53 17 -83 5z"/>
<path d="M4690 783 c-8 -3 -27 -17 -42 -31 -61 -56 -17 -162 67 -162 47 0 71
13 90 50 24 46 19 78 -19 116 -32 32 -60 40 -96 27z"/>
</g>
</svg>
