<?xml version="1.0" standalone="no"?>
<!DOCTYPE svg PUBLIC "-//W3C//DTD SVG 20010904//EN"
 "http://www.w3.org/TR/2001/REC-SVG-20010904/DTD/svg10.dtd">
<svg version="1.0" xmlns="http://www.w3.org/2000/svg"
 width="512.000000pt" height="512.000000pt" viewBox="0 0 512.000000 512.000000"
 preserveAspectRatio="xMidYMid meet">

<g transform="translate(0.000000,512.000000) scale(0.100000,-0.100000)"
fill="#000000" stroke="none">
<path d="M569 5091 l-29 -29 0 -2502 0 -2502 29 -29 29 -29 1962 0 1962 0 29
29 29 29 0 2502 0 2502 -29 29 -29 29 -1962 0 -1962 0 -29 -29z m1901 -2531
l0 -2380 -875 0 -875 0 0 2380 0 2380 875 0 875 0 0 -2380z m1930 1855 l0
-525 -875 0 -875 0 0 525 0 525 875 0 875 0 0 -525z m0 -1240 l0 -525 -875 0
-875 0 0 525 0 525 875 0 875 0 0 -525z m0 -1230 l0 -525 -875 0 -875 0 0 525
0 525 875 0 875 0 0 -525z m0 -1240 l0 -525 -875 0 -875 0 0 525 0 525 875 0
875 0 0 -525z"/>
<path d="M2146 2939 l-26 -31 0 -348 0 -348 26 -31 c34 -41 92 -44 129 -6 l25
24 0 361 0 361 -25 24 c-37 38 -95 35 -129 -6z"/>
</g>
</svg>
