<?xml version="1.0" standalone="no"?>
<!DOCTYPE svg PUBLIC "-//W3C//DTD SVG 20010904//EN"
 "http://www.w3.org/TR/2001/REC-SVG-20010904/DTD/svg10.dtd">
<svg version="1.0" xmlns="http://www.w3.org/2000/svg"
 width="512.000000pt" height="512.000000pt" viewBox="0 0 512.000000 512.000000"
 preserveAspectRatio="xMidYMid meet">

<g transform="translate(0.000000,512.000000) scale(0.100000,-0.100000)"
fill="#000000" stroke="none">
<path d="M3545 4990 c-443 -34 -841 -217 -1155 -532 -322 -323 -505 -735 -526
-1188 -6 -117 -5 -127 15 -152 50 -63 147 -54 176 16 8 20 15 58 15 85 0 76
28 274 51 359 144 536 529 948 1046 1121 147 49 252 70 414 81 88 5 134 13
151 24 74 48 56 162 -29 185 -21 6 -42 10 -48 9 -5 0 -55 -4 -110 -8z"/>
<path d="M3572 4439 c-578 -46 -1052 -485 -1147 -1066 -22 -131 -20 -224 5
-256 30 -38 80 -52 123 -33 48 20 63 54 70 161 25 358 235 689 548 859 132 72
321 126 443 126 79 0 124 16 146 53 24 38 25 68 5 107 -26 51 -61 60 -193 49z"/>
<path d="M4243 4120 c-21 -13 -35 -31 -42 -57 -7 -26 -11 -371 -11 -1050 l0
-1013 -1982 0 c-1361 0 -1995 -3 -2021 -11 -26 -7 -44 -21 -58 -42 -19 -31
-19 -53 -17 -754 l3 -723 28 -27 27 -28 319 -3 319 -3 4 -109 c3 -105 4 -110
33 -139 23 -25 37 -31 73 -31 35 0 49 6 73 29 29 29 29 31 29 140 l0 111 1540
0 1540 0 0 -111 c0 -109 0 -111 29 -140 24 -23 38 -29 73 -29 36 0 50 6 73 31
29 29 30 34 33 139 l4 109 319 3 319 3 27 28 28 27 3 723 c2 701 2 723 -17
754 -30 47 -65 53 -343 53 l-248 0 0 1038 c0 967 -2 1038 -18 1058 -38 47 -88
56 -139 24z m557 -2920 l0 -580 -2240 0 -2240 0 0 580 0 580 2240 0 2240 0 0
-580z"/>
<path d="M1383 1295 c-68 -29 -80 -120 -22 -169 29 -25 35 -26 164 -26 127 0
135 1 163 25 58 48 46 142 -22 170 -47 20 -238 20 -283 0z"/>
<path d="M2416 1295 c-42 -22 -55 -44 -56 -92 0 -33 6 -48 31 -72 l31 -31 138
0 138 0 31 31 c42 42 43 95 2 141 l-29 33 -129 3 c-101 2 -134 -1 -157 -13z"/>
<path d="M3453 1295 c-68 -29 -80 -120 -22 -169 29 -25 35 -26 164 -26 127 0
135 1 163 25 58 48 46 142 -22 170 -47 20 -238 20 -283 0z"/>
<path d="M3531 3834 c-285 -61 -512 -328 -523 -615 -4 -100 30 -144 108 -142
64 2 90 39 104 150 18 144 105 278 224 348 55 32 88 42 196 60 73 12 89 19
113 45 40 44 37 92 -7 136 -31 31 -39 34 -92 33 -33 0 -88 -7 -123 -15z"/>
</g>
</svg>
