<svg xmlns="http://www.w3.org/2000/svg" width="76" height="76" viewBox="0 0 76 76"><g><g><path fill="#f48f17" d="M56.542 40.625L46.333 30.417v-9.209C52.5 24.292 56.75 30.625 56.75 38c0 .917-.083 1.792-.208 2.625zM46.333 10.042V1.458C63.042 5.25 75.5 20.167 75.5 38c0 6.25-1.542 12.125-4.292 17.292L64.917 49c1.416-3.417 2.25-7.083 2.25-11 0-13.208-8.792-24.375-20.834-27.958zM38 32.708l37.5 37.5-5.292 5.292-8.5-8.542c-4.416 3.584-9.625 6.25-15.375 7.542v-8.583c3.459-1.042 6.584-2.75 9.375-4.917L38 43.292v28.041L17.167 50.5H.5v-25h19.708L.5 5.792 5.792.5zm0-10.625l-8.708-8.708L38 4.667z"/></g></g></svg>