<svg width="25" height="25" viewBox="0 0 25 25" fill="none" xmlns="http://www.w3.org/2000/svg">
<path d="M16.1459 1.0415H7.81254C6.37504 1.0415 5.20837 2.20817 5.20837 3.64567V21.354C5.20837 22.7915 6.37504 23.9582 7.81254 23.9582H16.1459C17.5834 23.9582 18.75 22.7915 18.75 21.354V3.64567C18.75 2.20817 17.5834 1.0415 16.1459 1.0415ZM11.9792 22.9165C11.1146 22.9165 10.4167 22.2186 10.4167 21.354C10.4167 20.4894 11.1146 19.7915 11.9792 19.7915C12.8438 19.7915 13.5417 20.4894 13.5417 21.354C13.5417 22.2186 12.8438 22.9165 11.9792 22.9165ZM16.6667 18.7498H7.29171V4.1665H16.6667V18.7498Z" fill="#F48F17"/>
</svg>
